<?xml version="1.0" encoding="UTF-8" standalone="no"?>
<svg width="512px" height="512px" viewBox="0 0 512 512" version="1.1" xmlns="http://www.w3.org/2000/svg" xmlns:xlink="http://www.w3.org/1999/xlink" xmlns:sketch="http://www.bohemiancoding.com/sketch/ns">
    <!-- Generator: Sketch Beta 3.3.2 (12041) - http://www.bohemiancoding.com/sketch -->
    <title>ewh</title>
    <desc>Created with Sketch Beta.</desc>
    <defs></defs>
    <g id="Page-1" stroke="none" stroke-width="1" fill="none" fill-rule="evenodd" sketch:type="MSPage">
        <g id="ewh" sketch:type="MSArtboardGroup" fill="#000000">
            <path d="M256,511 C396.832611,511 511,396.832611 511,256 C511,115.167389 396.832611,1 256,1 C115.167389,1 1,115.167389 1,256 C1,396.832611 115.167389,511 256,511 Z M312.9441,370.160077 C305.574448,370.160077 298.883068,366.095822 295.442017,359.674407 L218.387721,359.674407 C214.943984,366.094479 208.25529,370.160077 200.885638,370.160077 C189.933909,370.160077 181.023708,361.252563 181.023708,350.303519 C181.023708,346.170766 182.327869,342.154863 184.719951,338.801114 L147.992572,275.869634 C147.11955,275.991858 146.2519,276.052298 145.394995,276.052298 C134.445952,276.052298 125.535751,267.139411 125.535751,256.187681 C125.535751,245.238638 134.445952,236.331124 145.394995,236.331124 C146.062521,236.331124 146.73542,236.366045 147.401603,236.4332 L184.572208,172.834194 C182.271459,169.526111 181.022365,165.577364 181.022365,161.534599 C181.022365,150.586899 189.932565,141.676698 200.884295,141.676698 C208.506452,141.676698 215.469141,146.129112 218.755734,152.931971 L295.072661,152.931971 C298.357911,146.129112 305.321943,141.676698 312.9441,141.676698 C323.894486,141.676698 332.804687,150.586899 332.804687,161.535942 C332.804687,165.610942 331.534104,169.582522 329.201119,172.909408 L366.048035,236.422456 C366.668552,236.362016 367.279668,236.331124 367.888097,236.331124 C378.83714,236.331124 387.747341,245.238638 387.747341,256.187681 C387.747341,267.139411 378.83714,276.052298 367.888097,276.052298 C359.571552,276.052298 352.20593,270.853114 349.324956,263.183948 L163.963509,263.183948 C163.40746,264.670772 162.684867,266.068951 161.795727,267.370426 L198.681592,330.567842 C199.416274,330.485912 200.152299,330.444276 200.884295,330.444276 C209.280084,330.444276 216.665853,335.7039 219.506533,343.468426 L294.315146,343.468426 C297.154484,335.7039 304.541596,330.444276 312.942757,330.444276 C323.893143,330.444276 332.803344,339.354476 332.803344,350.303519 C332.803344,361.252563 323.894486,370.160077 312.9441,370.160077 Z M312.9441,342.226048 C308.491686,342.226048 304.869315,345.849762 304.869315,350.303519 C304.869315,354.757277 308.490343,358.375618 312.9441,358.375618 C317.395171,358.375618 321.020228,354.757277 321.020228,350.303519 C321.020228,345.849762 317.395171,342.226048 312.9441,342.226048 L312.9441,342.226048 Z M200.884295,342.226048 C196.429195,342.226048 192.806824,345.849762 192.806824,350.303519 C192.806824,354.757277 196.429195,358.375618 200.884295,358.375618 C205.336709,358.375618 208.953708,354.757277 208.953708,350.303519 C208.953708,345.849762 205.336709,342.226048 200.884295,342.226048 L200.884295,342.226048 Z M367.888097,248.116926 C363.43434,248.116926 359.811969,251.736611 359.811969,256.189025 C359.811969,260.641438 363.432997,264.265153 367.888097,264.265153 C372.340511,264.265153 375.962882,260.641438 375.962882,256.189025 C375.962882,251.736611 372.340511,248.116926 367.888097,248.116926 L367.888097,248.116926 Z M145.394995,248.116926 C140.942581,248.116926 137.32021,251.736611 137.32021,256.189025 C137.32021,260.641438 140.942581,264.265153 145.394995,264.265153 C149.850095,264.265153 153.467094,260.641438 153.467094,256.189025 C153.467094,251.736611 149.850095,248.116926 145.394995,248.116926 L145.394995,248.116926 Z M350.183204,247.231815 C350.686871,246.240599 351.27381,245.292363 351.939993,244.396507 L315.30529,181.2461 C314.514197,181.344147 313.727134,181.395186 312.9441,181.395186 C304.932441,181.395186 297.652778,176.443134 294.606601,169.139295 L219.217764,169.139295 C216.172931,176.443134 208.895954,181.395186 200.885638,181.395186 C200.075742,181.395186 199.25913,181.338775 198.437146,181.236698 L161.441145,244.529475 C162.064349,245.389067 162.62174,246.288951 163.095859,247.231815 L350.183204,247.231815 L350.183204,247.231815 Z M312.9441,153.461157 C308.491686,153.461157 304.869315,157.082185 304.869315,161.535942 C304.869315,165.988356 308.490343,169.610727 312.9441,169.610727 C317.395171,169.610727 321.020228,165.988356 321.020228,161.535942 C321.018885,157.083528 317.395171,153.461157 312.9441,153.461157 L312.9441,153.461157 Z M200.884295,153.461157 C196.429195,153.461157 192.806824,157.082185 192.806824,161.535942 C192.806824,165.988356 196.429195,169.610727 200.884295,169.610727 C205.336709,169.610727 208.953708,165.988356 208.953708,161.535942 C208.953708,157.083528 205.336709,153.461157 200.884295,153.461157 L200.884295,153.461157 Z" id="Oval-1" sketch:type="MSShapeGroup"></path>
        </g>
    </g>
</svg>